<?xml version="1.0" standalone="no"?>
<svg viewBox="0 0 200 200" xmlns="http://www.w3.org/2000/svg">
  <path fill="#FA4D56" d="M32.5,-48.2C42,-37.8,49.7,-28.2,59.1,-15.4C68.6,-2.5,79.9,13.5,76.1,24.6C72.4,35.8,53.6,41.9,38.4,48.3C23.3,54.7,11.6,61.5,-2.6,65C-16.8,68.6,-33.6,68.9,-42.8,60.6C-52.1,52.2,-53.8,35.1,-55.6,20.3C-57.4,5.4,-59.2,-7.2,-56.3,-19.1C-53.5,-31,-46.1,-42.1,-36,-52.4C-25.8,-62.6,-12.9,-71.9,-0.7,-70.9C11.5,-69.9,22.9,-58.6,32.5,-48.2Z" transform="translate(100 100)" />
</svg>
